<?xml version="1.0" encoding="UTF-8"?>
<svg id="Layer_1" xmlns="http://www.w3.org/2000/svg" version="1.1" viewBox="0 0 3840 1080">
  <!-- Generator: Adobe Illustrator 29.2.1, SVG Export Plug-In . SVG Version: 2.1.0 Build 116)  -->
  <defs>
    <style>
      .st0 {
        fill: #fff;
      }
    </style>
  </defs>
  <path class="st0" d="M626.1,118.1c-114.6-24.7-237.8-6.5-339.8,53.4-12.7,6.9-24.4,15.3-36.4,23.2-2.3,1.8-9,6.9-11.5,8.7-12,8.6-25.7,20.9-36.8,30.8-4.3,4.2-15.9,15.9-20.3,20.3-7.4,7.9-14.9,17-22.2,25.1-12.5,15.8-25.7,33.2-36.1,50.5-4.7,7.1-10.3,17.3-14.4,24.8-19.6,36.1-34.5,75.7-43.9,115.6-86.4,375.5,289,688.2,641.2,529.6,117.2-53.6,210.4-159.5,244.3-284.1,9-32.4,14.5-66.1,16.5-93.6,5.4-73.5,36-148.9,36-148.9l-17.4-6.2-24.4,56.9c-2.8,5.3-10.5,5.2-13.1-.2l-24.3-54.3-16.4,5.1,9.9,59.8c1.1,6-5.1,10.6-10.5,7.9l-45.3-32-10.7,15s57.4,34.7,54.4,109.4c-17.1,195.4-185.8,350.3-385.7,350.3h0c-156-3.1-305.4-96.6-366.8-256.9-51.3-135.9-24.7-290.2,71.9-399.2,5.4-5.5,10.8-12,16.2-17.4l11.5-10.9c3.3-3.2,8.2-7.7,11.8-10.5,4.2-3.4,14-11.9,18.4-14.9,4.6-3.3,11.4-8.3,15.9-11.6,44.5-29.8,95.3-51.2,148.1-60.5,31.6-5.5,61.4-10.3,120.7-2.9,87.8,15.2,124.3,108.6,12.1,170.8l9.8,18.8c113.1-47.6,179.9-9,182.3,116.2l21.2.9c8.4-105.7,102.2-158.4,195.6-86.2l5.7-8.9,5.7-9c-87-69-86.6-177.4,5.7-229.6l-9.8-18.8c-114.5,50.6-177.7,6.4-182.3-116.2l-21.2-.9c-28.6,137.3-116.6,89.2-165.8,80.4ZM734.8,236.4c20.2-31.7,62.3-41.1,94.1-20.8,31.7,20.2,41.1,62.3,20.8,94.1-20.2,31.7-62.3,41.1-94.1,20.8-31.7-20.2-41.1-62.3-20.8-94.1Z"/>
  <g>
    <path class="st0" d="M1207.4,784.5v-401.3c0-38.2,9.5-65.6,28.6-82.3,19.1-16.7,46-25.1,80.9-25.1h85.2v70.5h-73.9c-16.5,0-28.3,3.4-35.3,10.2-7.1,6.8-10.6,18.3-10.6,34.3v43.3h108.2v69.8h-108.2v280.6h-74.9Z"/>
    <path class="st0" d="M1613.5,793c-34.4,0-64.9-7.7-91.5-23-26.6-15.3-47.5-36.6-62.5-63.9-15.1-27.3-22.6-59.1-22.6-95.4s7.4-69,22.3-96.8c14.8-27.8,35.6-49.5,62.2-65,26.6-15.5,57.6-23.3,92.9-23.3s64.3,7.7,89.7,23c25.4,15.3,45.2,35.7,59.4,61.1,14.1,25.4,21.2,53.5,21.2,84.1s-.1,9.8-.4,15.2c-.2,5.4-.6,11.4-1.1,18h-272.7c2.3,33.9,13.5,59.7,33.6,77.4,20,17.7,43.2,26.5,69.6,26.5s39-4.8,53.3-14.5c14.4-9.6,25.1-22.7,32.2-39.2h74.9c-9.4,33-28.1,60.5-56.2,82.7-28,22.1-62.8,33.2-104.2,33.2ZM1613.5,487.1c-25,0-47.1,7.4-66.4,22.3-19.3,14.8-31.1,37.1-35.3,66.8h197.8c-1.4-27.3-11.1-49-29-65-17.9-16-40.3-24-67.1-24Z"/>
    <path class="st0" d="M1862.1,784.5v-350.4h66.4l6.4,49.5c11.3-17.9,26.3-32,44.9-42.4,18.6-10.4,40.2-15.5,64.6-15.5,55.6,0,94.2,21.9,115.9,65.7,12.7-20.2,29.8-36.3,51.2-48,21.4-11.8,44.6-17.7,69.6-17.7,43.8,0,78.2,13.2,103.1,39.6,25,26.4,37.4,65.7,37.4,118v201.4h-74.9v-193.6c0-67.8-25.9-101.7-77.7-101.7s-47.9,9.9-64.6,29.7c-16.7,19.8-25.1,48-25.1,84.8v180.9h-74.9v-193.6c0-67.8-26.1-101.7-78.4-101.7s-47.2,9.9-63.9,29.7c-16.7,19.8-25.1,48-25.1,84.8v180.9h-74.9Z"/>
    <path class="st0" d="M2656.3,784.5c-34.4,0-61.7-8.4-82-25.1-20.3-16.7-30.4-46.5-30.4-89.4v-166.2h-60.1v-69.8h60.1l9.2-89h65.7v89h98.9v69.8h-98.9v166.2c0,19.3,4.1,32.6,12.4,39.9,8.2,7.3,22.5,11,42.7,11h40.3v63.6h-57.9Z"/>
    <path class="st0" d="M2949.5,793c-33.4,0-63.5-7.7-90.1-23-26.6-15.3-47.7-36.7-63.2-64.3-15.5-27.6-23.3-59.7-23.3-96.4s7.9-68.9,23.7-96.4c15.8-27.6,37.1-49,63.9-64.3,26.8-15.3,56.8-23,89.7-23s63.5,7.7,90.1,23c26.6,15.3,47.8,36.7,63.6,64.3,15.8,27.6,23.7,59.7,23.7,96.4s-7.9,68.9-23.7,96.4c-15.8,27.6-37.1,49-63.9,64.3-26.8,15.3-57,23-90.4,23ZM2949.5,728.7c17.9,0,34.5-4.5,49.8-13.4,15.3-8.9,27.7-22.3,37.1-39.9,9.4-17.7,14.1-39.7,14.1-66.1s-4.6-48.4-13.8-66.1c-9.2-17.7-21.4-31-36.7-39.9-15.3-8.9-31.9-13.4-49.8-13.4s-34.5,4.5-49.8,13.4c-15.3,9-27.7,22.3-37.1,39.9-9.4,17.7-14.1,39.7-14.1,66.1s4.7,48.4,14.1,66.1c9.4,17.7,21.7,31,36.7,39.9,15.1,9,31.5,13.4,49.5,13.4Z"/>
    <g>
      <path class="st0" d="M3174.8,784.5l189.6-514.5h85.3l188.2,514.5h-82.3l-44.1-125.7h-210.2l-44.1,125.7h-82.3ZM3323.3,597.1h166.1l-83.1-234.4-83.1,234.4Z"/>
      <path class="st0" d="M3709.9,784.5V270.1h77.9v514.5h-77.9Z"/>
    </g>
  </g>
</svg>